# AST/ASF file generated using VICON BodyLanguage
# -----------------------------------------------
:version 1.10
:name VICON
:units
  mass 1.0
  length 0.45
  angle deg
:documentation
   .ast/.asf automatically generated from VICON data using
   VICON BodyBuilder and BodyLanguage model FoxedUp or BRILLIANT.MOD
:root
   order TX TY TZ RX RY RZ
   axis XYZ
   position 0 0 0  
   orientation 0 0 0 
:bonedata
  begin
     id 1 
     name lhipjoint
     direction 0.627412 -0.730575 0.26947 
     length 2.49821 
     axis 0 0 0  XYZ
  end
  begin
     id 2 
     name lfemur
     direction 0.34202 -0.939693 0  
     length 6.89165  
     axis 0 0 20  XYZ
    dof rx ry rz
    limits (-160.0 20.0)
           (-70.0 70.0)
           (-60.0 70.0)
  end
  begin
     id 3 
     name ltibia
     direction 0.34202 -0.939693 0   
     length 7.91287   
     axis 0 0 20   XYZ
    dof rx
    limits (-10.0 170.0)
  end
  begin
     id 4 
     name lfoot
     direction 0.0941675 -0.258723 0.96135   
     length 2.16919   
     axis -90 7.62852e-016 20   XYZ
    dof rx rz
    limits (-45.0 90.0)
           (-70.0 20.0)
  end
  begin
     id 5 
     name ltoes
     direction 1.5347e-011 -4.21941e-011 1   
     length 1.08535   
     axis -90 7.62852e-016 20   XYZ
    dof rx
    limits (-90.0 20.0)
  end
  begin
     id 6 
     name rhipjoint
     direction -0.614241 -0.740361 0.27308   
     length 2.46519  
     axis 0 0 0  XYZ 
  end
  begin
     id 7 
     name rfemur
     direction -0.34202 -0.939693 0   
     length 7.27512   
     axis 0 0 -20   XYZ
    dof rx ry rz
    limits (-160.0 20.0)
           (-70.0 70.0)
           (-70.0 60.0)
  end
  begin
     id 8 
     name rtibia
     direction -0.34202 -0.939693 0   
     length 7.89523   
     axis 0 0 -20   XYZ
    dof rx
    limits (-10.0 170.0)
 end
 begin
     id 9 
     name rfoot
     direction -0.0860444 -0.236405 0.967837   
     length 2.29534  
     axis -90 -7.62852e-016 -20   XYZ
    dof rx rz
    limits (-45.0 90.0)
           (-20.0 70.0)
  end
  begin
     id 10 
     name rtoes
     direction -1.53608e-011 -4.21861e-011 1   
     length 1.14915   
     axis -90 -7.62852e-016 -20   XYZ
    dof rx
    limits (-90.0 20.0)
  end
  begin
     id 11 
     name lowerback
     direction -0.00734074 0.997215 -0.0742143   
     length 2.13469   
     axis 0 0 0   XYZ
    dof rx ry rz
    limits (-20.0 45.0)
           (-30.0 30.0)
           (-30.0 30.0)
  end
  begin
     id 12 
     name upperback
     direction 0.0285728 0.99958 -0.00488656   
     length 2.13416   
     axis 0 0 0   XYZ
    dof rx ry rz
    limits (-20.0 45.0)
           (-30.0 30.0)
           (-30.0 30.0)
  end
  begin
     id 13 
     name thorax
     direction 0.0316844 0.999056 0.0297249   
     length 2.14463   
     axis 0 0 0   XYZ
    dof rx ry rz
    limits (-20.0 45.0)
           (-30.0 30.0)
           (-30.0 30.0)
  end
  begin
     id 14 
     name lowerneck
     direction -0.0281545 0.996802 0.0747864   
     length 1.79004   
     axis 0 0 0   XYZ
    dof rx ry rz
    limits (-20.0 45.0)
           (-30.0 30.0)
           (-30.0 30.0)
  end
  begin
     id 15 
     name upperneck
     direction -0.00100185 0.982732 -0.185031   
     length 1.79988   
     axis 0 0 0   XYZ
    dof rx ry rz
    limits (-20.0 45.0)
           (-30.0 30.0)
           (-30.0 30.0)
  end
  begin
     id 16
     name head
     direction 0.00403747 0.997539 -0.0700022  
     length 1.81696  
     axis 0 0 0   XYZ
    dof rx ry rz
    limits (-20.0 45.0)
           (-30.0 30.0)
           (-30.0 30.0)
  end
  begin
     id 17 
     name lclavicle
     direction 0.959882 0.242905 -0.140082  
     length 3.87755  
     axis 0 0 0   XYZ
    dof ry rz
    limits (-20.0 10.0)
           (0.0 20.0)
  end
  begin
     id 18 
     name lhumerus
     direction 1 -4.4895e-011 3.76166e-027   
     length 5.14601   
     axis 180 -30 -90   XYZ
    dof rx ry rz
    limits (-60.0 90.0)
           (-90.0 90.0)
           (-90.0 90.0)
  end
  begin
     id 19
     name lradius
     direction 1 -4.48966e-011 -3.24039e-027   
     length 3.64452   
     axis 180 -30 -90   XYZ
    dof rx
    limits (-10.0 170.0)
  end
  begin
     id 20
     name lwrist
     direction 1 -4.48999e-011 2.57119e-027   
     length 1.82226   
     axis -1.61769e-015 90 90   XYZ
    dof ry
    limits (-180.0 0.0)
 end
  begin
     id 21 
     name lhand
     direction 1 -4.48961e-011 5.13984e-027   
     length 0.56228   
     axis -3.27988e-015 90 90   XYZ
    dof rx rz
    limits (-90.0 90.0)
           (-45.0 45.0)
  end
  begin
     id 22 
     name lfingers
     direction 1 -4.48991e-011 1.02836e-026   
     length 0.453325   
     axis -6.5598e-015 90 90   XYZ
    dof rx
    limits (0.0 90.0)
  end
  begin
     id 23
     name lthumb
     direction 0.707107 -6.34956e-011 0.707107   
     length 0.650886   
     axis -90 45 2.19363e-014   XYZ
    dof rx rz
    limits (-45.0 45.0)
           (-45.0 45.0)
  end
  begin
     id 24 
     name rclavicle
     direction -0.929201 0.345171 -0.132073   
     length 3.55416  
     axis 0 0 0   XYZ 
    dof ry rz
    limits (-10.0 20.0)
           (-20.0 0.0)
  end
  begin
     id 25 
     name rhumerus
     direction -1 -4.48979e-011 4.53734e-027  
     length 5.33913   
     axis 180 30 90   XYZ
    dof rx ry rz
    limits (-90.0 60.0)
           (-90.0 90.0)
           (-90.0 90.0)
  end
  begin
     id 26 
     name rradius
     direction -1 -4.4896e-011 -2.24007e-027   
     length 3.56478   
     axis 180 30 90   XYZ
    dof rx
    limits (-10.0 170.0)
  end
  begin
     id 27 
     name rwrist
     direction -1 -4.48923e-011 2.56866e-027   
     length 1.78239   
     axis -1.61769e-015 -90 -90   XYZ
    dof ry
    limits (-180.0 0.0)
  end
  begin
     id 28
     name rhand
     direction -1 -4.48914e-011 5.13667e-027   
     length 0.857474   
     axis -3.27988e-015 -90 -90   XYZ
    dof rx rz
    limits (-90.0 90.0)
           (-45.0 45.0)
  end
  begin
     id 29
     name rfingers
     direction -1 -4.49112e-011 1.02998e-026   
     length 0.691318   
     axis -6.5598e-015 -90 -90   XYZ
    dof rx
    limits (0.0 90.0)
  end
  begin
     id 30
     name rthumb
     direction -0.707107 -6.34979e-011 0.707107   
     length 0.992598   
     axis -90 -45 -2.19363e-014   XYZ
    dof rx rz
    limits (-45.0 45.0)
           (-45.0 45.0)
  end
:hierarchy
  begin
    root lhipjoint rhipjoint lowerback
    lhipjoint lfemur
    lfemur ltibia
    ltibia lfoot
    lfoot ltoes
    rhipjoint rfemur
    rfemur rtibia
    rtibia rfoot
    rfoot rtoes
    lowerback upperback
    upperback thorax
    thorax lowerneck lclavicle rclavicle
    lowerneck upperneck
    upperneck head
    lclavicle lhumerus
    lhumerus lradius
    lradius lwrist
    lwrist lhand lthumb
    lhand lfingers
    rclavicle rhumerus
    rhumerus rradius
    rradius rwrist
    rwrist rhand rthumb
    rhand rfingers
  end

#!OML:ASF F:\VICON\USERDATA\INSTALL\Justin4\Justin4.ASF
:FULLY-SPECIFIED
:DEGREES
261
root -4.35521 15.3662 12.3667 -193.851 -126.624 190.858
lowerback 12.7411 -4.4314 -9.33489
upperback 1.21912 -7.02002 4.59279
thorax -4.10226 -3.35319 11.3055
lowerneck -11.1735 -1.33941 -8.91023
upperneck 19.5085 -1.16355 4.23855
head 7.94777 -0.870127 2.76683
rclavicle 1.17283e-013 -5.40694e-014
rhumerus -13.278 25.0736 -76.5643
rradius 119.295
rwrist 19.9922
rhand 0.979964 11.1403
rfingers 7.12502
rthumb 26.5287 -17.0222
lclavicle 1.17283e-013 -5.40694e-014
lhumerus 32.1415 -24.0535 75.0403
lradius 102.502
lwrist -5.67095
lhand -12.4273 5.69284
lfingers 7.12502
lthumb 13.6452 35.2256
rfemur -49.0992 5.56278 7.63091
rtibia 61.3288
rfoot -3.20942 4.5317
rtoes 1.564
lfemur 11.3162 -7.46291 -18.2194
ltibia 51.057
lfoot -11.6797 -2.73207
ltoes -33.932
262
root -4.31538 15.4382 12.3693 -193.961 -125.835 190.892
lowerback 12.8074 -4.98899 -9.04888
upperback 1.38509 -7.74071 4.28164
thorax -3.85964 -3.74283 10.859
lowerneck -10.9997 -1.09479 -9.00244
upperneck 18.8863 -1.04768 5.44025
head 7.69938 -0.69625 3.18814
rclavicle -1.25234e-014 -2.06736e-014
rhumerus -14.9777 25.3312 -78.9329
rradius 119.937
rwrist 19.7297
rhand 0.81367 11.3667
rfingers 7.12502
rthumb 26.3695 -16.8198
lclavicle -1.25234e-014 -2.06736e-014
lhumerus 36.1021 -22.7277 72.4914
lradius 94.3586
lwrist -6.05732
lhand -11.63 6.06339
lfingers 7.12502
lthumb 14.4136 35.5429
rfemur -48.5548 5.75936 7.97016
rtibia 60.0503
rfoot -2.64831 5.07146
rtoes 1.98303
lfemur 11.2816 -7.03356 -18.1977
ltibia 50.8334
lfoot -10.8881 -3.37237
ltoes -33.0221
263
root -4.25436 15.5214 12.3676 -193.515 -125.22 190.349
lowerback 12.727 -5.90394 -8.11839
upperback 1.64223 -8.84007 3.78574
thorax -3.49488 -4.33739 9.85569
lowerneck -11.2612 -0.475153 -8.25858
upperneck 19.0705 -0.426943 5.94654
head 7.75027 -0.302864 3.29779
rclavicle 6.89783e-014 -2.06736e-014
rhumerus -16.3228 26.057 -81.5538
rradius 120.418
rwrist 19.2854
rhand 1.24126 11.468
rfingers 7.12502
rthumb 26.7787 -16.6564
lclavicle 6.89783e-014 -2.06736e-014
lhumerus 40.1417 -21.0703 69.4058
lradius 85.0699
lwrist -6.87424
lhand -10.8402 7.56333
lfingers 7.12502
lthumb 15.1745 36.9869
rfemur -47.8488 5.76309 8.54978
rtibia 58.3737
rfoot -2.02015 5.83444
rtoes 0.456183
lfemur 10.8895 -6.6044 -17.6713
ltibia 50.7495
lfoot -10.0911 -4.20866
ltoes -33.0547
264
root -4.18178 15.6222 12.3565 -192.896 -124.831 189.92
lowerback 12.7533 -6.62339 -8.03708
upperback 1.59087 -9.789 3.87337
thorax -3.35126 -4.82236 9.9948
lowerneck -11.1456 0.173371 -8.05955
upperneck 19.4303 0.387221 5.9841
head 7.78261 0.0896266 3.36055
rclavicle 2.54444e-014 1.11319e-014
rhumerus -17.7414 26.8261 -83.1663
rradius 120.953
rwrist 18.6796
rhand 2.81629 12.0364
rfingers 7.12502
rthumb 28.285 -15.8481
lclavicle 2.54444e-014 1.11319e-014
lhumerus 44.1729 -19.4784 67.74
lradius 74.2825
lwrist -8.60775
lhand -10.482 9.37775
lfingers 7.12502
lthumb 15.5194 38.7749
rfemur -47.3025 5.47134 8.91373
rtibia 56.4536
rfoot -1.15399 6.71771
rtoes -0.140343
lfemur 10.0061 -6.18823 -17.0845
ltibia 50.672
lfoot -9.19402 -5.46972
ltoes -32.089
265
root -4.10501 15.7407 12.355 -193.074 -124.411 190.3
lowerback 12.8322 -7.00074 -8.6057
upperback 1.57715 -10.3754 4.05667
thorax -3.14053 -5.12934 10.5643
lowerneck -10.9103 0.439278 -7.97751
upperneck 19.5671 0.765339 5.68588
head 7.75911 0.237809 3.28217
rclavicle 5.68524e-014 7.95139e-015
rhumerus -19.1093 26.9765 -84.0564
rradius 121.645
rwrist 18.4596
rhand 4.33749 12.7133
rfingers 7.12502
rthumb 29.7379 -14.9211
lclavicle 5.68524e-014 7.95139e-015
lhumerus 48.7123 -18.1612 66.9923
lradius 62.0586
lwrist -11.2339
lhand -10.8991 9.208
lfingers 7.12502
lthumb 15.1176 38.6359
rfemur -46.5435 5.19917 8.76794
rtibia 54.3642
rfoot -0.148531 7.74772
rtoes -0.027531
lfemur 9.38364 -5.87551 -17.1964
ltibia 50.4641
lfoot -8.10093 -6.66508
ltoes -28.9667
266
root -4.0181 15.8658 12.3586 -194.158 -123.719 191.418
lowerback 13.1101 -7.23291 -9.51592
upperback 1.74977 -10.8393 4.05374
thorax -2.82691 -5.3899 11.1199
lowerneck -10.94 0.458217 -6.73438
upperneck 19.8017 0.84121 4.2017
head 7.85757 0.216072 2.5893
rclavicle 9.93923e-016 1.27222e-014
rhumerus -20.1614 27.2577 -84.8956
rradius 122.178
rwrist 19.2171
rhand 4.33573 12.8407
rfingers 7.12502
rthumb 29.7362 -14.794
lclavicle 9.93923e-016 1.27222e-014
lhumerus 53.2989 -16.5518 66.8326
lradius 49.2529
lwrist -15.4295
lhand -11.5262 8.36937
lfingers 7.12502
lthumb 14.5136 37.8417
rfemur -45.4978 5.138 8.25609
rtibia 52.0931
rfoot 1.25791 9.08441
rtoes 1.57407
lfemur 9.24994 -5.31636 -17.8242
ltibia 50.1176
lfoot -7.24508 -7.63295
ltoes -26.8315
267
root -3.91717 16.0044 12.3509 -194.82 -122.688 192.066
lowerback 13.4532 -7.53052 -10.1497
upperback 1.9786 -11.3594 4.1434
thorax -2.49096 -5.69217 11.6292
lowerneck -11.3413 0.869793 -6.40931
upperneck 20.2322 1.4973 3.53986
head 8.04551 0.478631 2.38853
rclavicle 5.42682e-014 2.8625e-014
rhumerus -20.7355 28.0258 -85.9996
rradius 122.421
rwrist 19.6732
rhand 4.33041 13.0725
rfingers 7.12502
rthumb 29.7311 -14.5631
lclavicle 5.42682e-014 2.8625e-014
lhumerus 57.4215 -14.1373 68.085
lradius 36.435
lwrist -21.6291
lhand -11.6794 10.5094
lfingers 7.12502
lthumb 14.366 39.9923
rfemur -44.4808 5.33506 8.09319
rtibia 49.5454
rfoot 3.44212 10.3223
rtoes 5.99056
lfemur 9.06112 -4.38292 -17.9743
ltibia 49.6962
lfoot -6.95192 -8.35784
ltoes -26.3096
268
root -3.80371 16.1581 12.3388 -194.625 -121.599 192.057
lowerback 13.6735 -8.03193 -10.4878
upperback 2.09591 -12.0968 4.5983
thorax -2.1101 -6.11634 12.3719
lowerneck -11.6689 1.36686 -7.28554
upperneck 20.3056 2.39241 3.50605
head 8.07221 0.83159 2.61587
rclavicle -1.77912e-013 3.02153e-014
rhumerus -20.8929 29.5547 -86.449
rradius 122.74
rwrist 19.2149
rhand 4.79672 13.5557
rfingers 7.12502
rthumb 30.1761 -13.9996
lclavicle -1.77912e-013 3.02153e-014
lhumerus 60.0604 -12.0615 65.6145
lradius 27.6192
lwrist -22.7112
lhand -10.8533 15.1027
lfingers 7.12502
lthumb 15.1618 44.5273
rfemur -43.6964 5.5266 8.28959
rtibia 46.6831
rfoot 6.11685 11.3397
rtoes 9.59799
lfemur 8.40527 -3.41059 -17.7211
ltibia 49.2485
lfoot -7.04205 -8.2108
ltoes -26.437
269
root -3.68214 16.3159 12.3275 -194.4 -120.439 192.266
lowerback 13.7862 -8.39919 -10.8417
upperback 2.20147 -12.6521 4.96618
thorax -1.73172 -6.45013 12.9954
lowerneck -11.8544 1.84274 -7.54237
upperneck 20.0583 3.20437 3.1235
head 7.98159 1.16725 2.60674
rclavicle 9.70069e-014 9.54166e-015
rhumerus -20.9501 31.02 -86.7087
rradius 123.073
rwrist 19.3429
rhand 4.43033 13.5731
rfingers 7.12502
rthumb 29.8265 -14.0454
lclavicle 9.70069e-014 9.54166e-015
lhumerus 62.0389 -10.1872 63.2015
lradius 20.9107
lwrist -22.5125
lhand -8.10677 14.4384
lfingers 7.12502
lthumb 17.8061 43.6432
rfemur -43.1604 5.843 8.31735
rtibia 43.5589
rfoot 9.19464 12.3079
rtoes 11.0932
lfemur 7.44236 -2.30496 -17.6153
ltibia 48.7189
lfoot -7.21424 -6.47441
ltoes -26.7333
270
root -3.55898 16.4772 12.3215 -194.587 -118.866 192.898
lowerback 13.888 -8.38151 -11.0969
upperback 2.41276 -12.6789 4.97445
thorax -1.48999 -6.50108 13.1375
lowerneck -11.748 2.17499 -6.44252
upperneck 19.4986 3.61942 2.24677
head 7.79359 1.37796 2.1613
rclavicle -7.31528e-014 2.70347e-014
rhumerus -21.0666 31.637 -87.9065
rradius 123.016
rwrist 20.2121
rhand 3.62338 13.3104
rfingers 7.12502
rthumb 29.0561 -14.4437
lclavicle -7.31528e-014 2.70347e-014
lhumerus 63.193 -9.85686 59.3352
lradius 18.2831
lwrist -20.944
lhand -4.57386 15.8786
lfingers 7.12502
lthumb 21.2028 44.7391
rfemur -42.7055 6.66013 8.08329
rtibia 40.2873
rfoot 13.2896 12.5602
rtoes 15.2578
lfemur 6.63952 -0.770066 -17.661
ltibia 47.9578
lfoot -7.39163 -2.90852
ltoes -26.6688
271
root -3.43734 16.6334 12.3284 -195.34 -116.924 193.981
lowerback 14.1686 -8.31919 -11.4529
upperback 2.55122 -12.6824 5.23156
thorax -1.34489 -6.53993 13.659
lowerneck -11.9106 2.55919 -6.28182
upperneck 19.1771 4.29486 1.43653
head 7.71282 1.64167 1.92901
rclavicle 9.70069e-014 -5.24792e-014
rhumerus -21.1924 32.8553 -89.0287
rradius 122.765
rwrist 21.4694
rhand 2.88976 13.4826
rfingers 7.12502
rthumb 28.3552 -14.3902
lclavicle 9.70069e-014 -5.24792e-014
lhumerus 62.6086 -8.47416 57.8624
lradius 18.171
lwrist -21.7116
lhand -3.30472 16.2102
lfingers 7.12502
lthumb 22.4215 44.9289
rfemur -42.2663 7.50095 7.85378
rtibia 37.0926
rfoot 18.157 12.0985
rtoes 20.9183
lfemur 6.19596 1.0931 -17.8148
ltibia 46.8569
lfoot -7.68502 1.1889
ltoes -25.7569
272
root -3.32078 16.7878 12.345 -196.694 -114.688 195.453
lowerback 14.1208 -8.6001 -10.9037
upperback 2.93313 -12.9792 5.03041
thorax -0.989156 -6.73756 13.0824
lowerneck -12.3091 3.24094 -6.75111
upperneck 18.9261 5.41007 1.19198
head 7.65241 2.12323 2.03333
rclavicle 1.08536e-013 -3.18055e-015
rhumerus -21.4057 34.5324 -90.7408
rradius 122.652
rwrist 23.3064
rhand 1.81659 13.985
rfingers 7.12502
rthumb 27.3292 -14.054
lclavicle 1.08536e-013 -3.18055e-015
lhumerus 60.8385 -6.47108 56.201
lradius 20.101
lwrist -23.5714
lhand -4.05055 17.3155
lfingers 7.12502
lthumb 21.7054 46.1186
rfemur -41.8559 8.40658 7.75392
rtibia 34.3294
rfoot 22.7174 11.0097
rtoes 24.1488
lfemur 6.25375 3.22894 -17.9809
ltibia 45.3506
lfoot -8.26873 4.86049
ltoes -24.6177
273
root -3.22037 16.937 12.3583 -199.565 -112.529 198.633
lowerback 13.8569 -8.45063 -10.7553
upperback 3.20443 -12.7365 4.49015
thorax -0.795018 -6.62523 12.3137
lowerneck -12.269 3.71172 -6.41166
upperneck 18.6709 6.09037 0.62702
head 7.56434 2.42448 1.85067
rclavicle 6.2816e-014 1.11319e-014
rhumerus -22.067 35.0021 -92.211
rradius 122.928
rwrist 24.3877
rhand 0.869579 13.9974
rfingers 7.12502
rthumb 26.423 -14.181
lclavicle 6.2816e-014 1.11319e-014
lhumerus 59.3775 -5.53275 55.2929
lradius 22.8209
lwrist -24.862
lhand -6.7644 17.52
lfingers 7.12502
lthumb 19.0974 46.6024
rfemur -41.6889 9.16644 7.10745
rtibia 32.063
rfoot 25.5428 9.094
rtoes 22.7121
lfemur 6.33278 5.5262 -18.7007
ltibia 43.682
lfoot -8.97308 8.0974
ltoes -23.8551
